<svg width="357" height="80" viewBox="0 0 357 80" fill="none" xmlns="http://www.w3.org/2000/svg">
<rect x="1" y="1" width="355" height="78" fill="white" stroke="black" stroke-width="2"/>
<path d="M48.447 32.409C50.169 32.409 51.6997 32.7643 53.039 33.475C54.4057 34.1583 55.4717 35.2243 56.237 36.673C57.0297 38.1217 57.426 39.994 57.426 42.29V55H49.636V43.561C49.636 41.9757 49.3353 40.8277 48.734 40.117C48.1327 39.379 47.3127 39.01 46.274 39.01C45.536 39.01 44.8663 39.1877 44.265 39.543C43.6637 39.8983 43.199 40.445 42.871 41.183C42.543 41.8937 42.379 42.823 42.379 43.971V55H34.589V43.561C34.589 41.9757 34.2883 40.8277 33.687 40.117C33.113 39.379 32.293 39.01 31.227 39.01C30.4617 39.01 29.7783 39.1877 29.177 39.543C28.603 39.8983 28.1383 40.445 27.783 41.183C27.455 41.8937 27.291 42.823 27.291 43.971V55H19.501V32.778H26.922V38.969L25.446 37.206C26.266 35.6207 27.3867 34.4317 28.808 33.639C30.2293 32.819 31.8147 32.409 33.564 32.409C35.5593 32.409 37.3087 32.9283 38.812 33.967C40.3427 34.9783 41.3677 36.5637 41.887 38.723L39.345 38.19C40.1377 36.386 41.3267 34.9783 42.912 33.967C44.5247 32.9283 46.3697 32.409 48.447 32.409ZM75.9138 55V50.859L75.3808 49.834V42.208C75.3808 40.978 74.9981 40.035 74.2328 39.379C73.4948 38.6957 72.3058 38.354 70.6658 38.354C69.5998 38.354 68.5201 38.5317 67.4268 38.887C66.3335 39.215 65.4041 39.6797 64.6388 40.281L62.0148 34.992C63.2721 34.172 64.7755 33.5433 66.5248 33.106C68.3015 32.6413 70.0645 32.409 71.8138 32.409C75.4218 32.409 78.2098 33.2427 80.1778 34.91C82.1731 36.55 83.1708 39.133 83.1708 42.659V55H75.9138ZM69.3538 55.369C67.5771 55.369 66.0738 55.0683 64.8438 54.467C63.6138 53.8657 62.6708 53.0457 62.0148 52.007C61.3861 50.9683 61.0718 49.8067 61.0718 48.522C61.0718 47.1553 61.4135 45.98 62.0968 44.996C62.8075 43.9847 63.8871 43.2193 65.3358 42.7C66.7845 42.1533 68.6568 41.88 70.9528 41.88H76.2008V45.939H72.0188C70.7615 45.939 69.8731 46.144 69.3538 46.554C68.8618 46.964 68.6158 47.5107 68.6158 48.194C68.6158 48.8773 68.8755 49.424 69.3948 49.834C69.9141 50.244 70.6248 50.449 71.5268 50.449C72.3741 50.449 73.1395 50.244 73.8228 49.834C74.5335 49.3967 75.0528 48.7407 75.3808 47.866L76.4468 50.736C76.0368 52.2667 75.2305 53.4283 74.0278 54.221C72.8525 54.9863 71.2945 55.369 69.3538 55.369ZM98.0099 55.369C95.1672 55.369 92.9532 54.672 91.3679 53.278C89.7826 51.8567 88.9899 49.7247 88.9899 46.882V27.817H96.7799V46.8C96.7799 47.5927 96.9986 48.2213 97.4359 48.686C97.8732 49.1233 98.4336 49.342 99.1169 49.342C100.046 49.342 100.839 49.1097 101.495 48.645L103.422 54.098C102.766 54.5353 101.96 54.8497 101.003 55.041C100.046 55.2597 99.0486 55.369 98.0099 55.369ZM85.7509 39.42V33.598H101.864V39.42H85.7509ZM117.429 55.369C114.805 55.369 112.509 54.877 110.541 53.893C108.601 52.8817 107.084 51.515 105.99 49.793C104.924 48.0437 104.391 46.062 104.391 43.848C104.391 41.634 104.911 39.666 105.949 37.944C107.015 36.1947 108.478 34.8417 110.336 33.885C112.195 32.901 114.286 32.409 116.609 32.409C118.796 32.409 120.791 32.86 122.595 33.762C124.399 34.6367 125.834 35.935 126.9 37.657C127.966 39.379 128.499 41.47 128.499 43.93C128.499 44.2033 128.486 44.5177 128.458 44.873C128.431 45.2283 128.404 45.5563 128.376 45.857H110.787V41.757H124.235L121.283 42.905C121.311 41.8937 121.119 41.019 120.709 40.281C120.327 39.543 119.78 38.969 119.069 38.559C118.386 38.149 117.58 37.944 116.65 37.944C115.721 37.944 114.901 38.149 114.19 38.559C113.507 38.969 112.974 39.5567 112.591 40.322C112.209 41.06 112.017 41.9347 112.017 42.946V44.135C112.017 45.2283 112.236 46.1713 112.673 46.964C113.138 47.7567 113.794 48.3717 114.641 48.809C115.489 49.219 116.5 49.424 117.675 49.424C118.769 49.424 119.698 49.2737 120.463 48.973C121.256 48.645 122.035 48.153 122.8 47.497L126.9 51.761C125.834 52.9363 124.522 53.8383 122.964 54.467C121.406 55.0683 119.561 55.369 117.429 55.369ZM141.439 55.369C139.635 55.369 138.009 55.0137 136.56 54.303C135.139 53.5923 134.018 52.4853 133.198 50.982C132.405 49.4513 132.009 47.5243 132.009 45.201V32.778H139.799V43.93C139.799 45.652 140.113 46.882 140.742 47.62C141.398 48.358 142.314 48.727 143.489 48.727C144.254 48.727 144.951 48.5493 145.58 48.194C146.209 47.8387 146.714 47.2783 147.097 46.513C147.48 45.7203 147.671 44.709 147.671 43.479V32.778H155.461V55H148.04V48.727L149.475 50.49C148.71 52.13 147.603 53.36 146.154 54.18C144.705 54.9727 143.134 55.369 141.439 55.369ZM168.556 55.369C166.67 55.369 164.825 55.1503 163.021 54.713C161.244 54.2757 159.809 53.729 158.716 53.073L161.053 47.743C162.091 48.3717 163.308 48.8773 164.702 49.26C166.096 49.6153 167.462 49.793 168.802 49.793C170.114 49.793 171.016 49.6563 171.508 49.383C172.027 49.1097 172.287 48.7407 172.287 48.276C172.287 47.8387 172.041 47.5243 171.549 47.333C171.084 47.1143 170.455 46.9503 169.663 46.841C168.897 46.7317 168.05 46.6087 167.121 46.472C166.191 46.3353 165.248 46.1577 164.292 45.939C163.362 45.693 162.501 45.3377 161.709 44.873C160.943 44.381 160.328 43.725 159.864 42.905C159.399 42.085 159.167 41.0463 159.167 39.789C159.167 38.3677 159.577 37.1103 160.397 36.017C161.244 34.8963 162.474 34.0217 164.087 33.393C165.699 32.737 167.667 32.409 169.991 32.409C171.549 32.409 173.12 32.573 174.706 32.901C176.318 33.2017 177.671 33.6663 178.765 34.295L176.428 39.584C175.334 38.9553 174.241 38.5317 173.148 38.313C172.054 38.067 171.016 37.944 170.032 37.944C168.72 37.944 167.79 38.0943 167.244 38.395C166.724 38.6957 166.465 39.0647 166.465 39.502C166.465 39.9393 166.697 40.281 167.162 40.527C167.626 40.7457 168.241 40.9233 169.007 41.06C169.799 41.1693 170.66 41.2923 171.59 41.429C172.519 41.5383 173.448 41.716 174.378 41.962C175.334 42.208 176.195 42.577 176.961 43.069C177.753 43.5337 178.382 44.176 178.847 44.996C179.311 45.7887 179.544 46.8137 179.544 48.071C179.544 49.4377 179.12 50.6677 178.273 51.761C177.453 52.8543 176.223 53.729 174.583 54.385C172.97 55.041 170.961 55.369 168.556 55.369ZM181.752 55V50.408L194.216 36.058L195.528 38.559H182.039V32.778H201.842V37.329L189.337 51.72L188.025 49.178H202.252V55H181.752ZM219.664 55.369C217.778 55.369 216.165 54.959 214.826 54.139C213.486 53.2917 212.461 52.0343 211.751 50.367C211.067 48.6723 210.726 46.513 210.726 43.889C210.726 41.2377 211.054 39.0783 211.71 37.411C212.366 35.7163 213.35 34.459 214.662 33.639C216.001 32.819 217.668 32.409 219.664 32.409C221.686 32.409 223.518 32.8873 225.158 33.844C226.825 34.7733 228.137 36.099 229.094 37.821C230.078 39.5157 230.57 41.5383 230.57 43.889C230.57 46.2397 230.078 48.276 229.094 49.998C228.137 51.72 226.825 53.0457 225.158 53.975C223.518 54.9043 221.686 55.369 219.664 55.369ZM205.683 62.954V32.778H213.104V36.55L213.063 43.889L213.473 51.269V62.954H205.683ZM218.024 49.178C218.898 49.178 219.677 48.973 220.361 48.563C221.071 48.153 221.632 47.5517 222.042 46.759C222.479 45.9663 222.698 45.0097 222.698 43.889C222.698 42.7683 222.479 41.8117 222.042 41.019C221.632 40.2263 221.071 39.625 220.361 39.215C219.677 38.805 218.898 38.6 218.024 38.6C217.149 38.6 216.356 38.805 215.646 39.215C214.962 39.625 214.402 40.2263 213.965 41.019C213.555 41.8117 213.35 42.7683 213.35 43.889C213.35 45.0097 213.555 45.9663 213.965 46.759C214.402 47.5517 214.962 48.153 215.646 48.563C216.356 48.973 217.149 49.178 218.024 49.178ZM234.19 55V32.778H241.98V55H234.19ZM238.085 30.318C236.664 30.318 235.516 29.9217 234.641 29.129C233.767 28.3363 233.329 27.3523 233.329 26.177C233.329 25.0017 233.767 24.0177 234.641 23.225C235.516 22.4323 236.664 22.036 238.085 22.036C239.507 22.036 240.655 22.4187 241.529 23.184C242.404 23.922 242.841 24.8787 242.841 26.054C242.841 27.284 242.404 28.309 241.529 29.129C240.682 29.9217 239.534 30.318 238.085 30.318ZM257.908 63.323C255.776 63.323 253.74 63.077 251.799 62.585C249.886 62.093 248.246 61.3687 246.879 60.412L249.708 54.959C250.637 55.697 251.785 56.271 253.152 56.681C254.546 57.1183 255.899 57.337 257.211 57.337C259.316 57.337 260.833 56.8723 261.762 55.943C262.691 55.041 263.156 53.7153 263.156 51.966V49.342L263.566 43.11L263.525 36.837V32.778H270.946V50.941C270.946 55.1503 269.812 58.2663 267.543 60.289C265.274 62.3117 262.063 63.323 257.908 63.323ZM256.555 53.852C254.587 53.852 252.769 53.4147 251.102 52.54C249.462 51.638 248.136 50.3943 247.125 48.809C246.141 47.1963 245.649 45.2967 245.649 43.11C245.649 40.9233 246.141 39.0373 247.125 37.452C248.136 35.8393 249.462 34.5957 251.102 33.721C252.769 32.8463 254.587 32.409 256.555 32.409C258.441 32.409 260.054 32.7917 261.393 33.557C262.732 34.295 263.744 35.4567 264.427 37.042C265.138 38.6273 265.493 40.65 265.493 43.11C265.493 45.57 265.138 47.5927 264.427 49.178C263.744 50.7633 262.732 51.9387 261.393 52.704C260.054 53.4693 258.441 53.852 256.555 53.852ZM258.4 47.661C259.329 47.661 260.149 47.4697 260.86 47.087C261.598 46.7043 262.172 46.1713 262.582 45.488C263.019 44.8047 263.238 44.012 263.238 43.11C263.238 42.208 263.019 41.4153 262.582 40.732C262.172 40.0487 261.598 39.5293 260.86 39.174C260.149 38.7913 259.329 38.6 258.4 38.6C257.471 38.6 256.637 38.7913 255.899 39.174C255.161 39.5293 254.573 40.0487 254.136 40.732C253.726 41.4153 253.521 42.208 253.521 43.11C253.521 44.012 253.726 44.8047 254.136 45.488C254.573 46.1713 255.161 46.7043 255.899 47.087C256.637 47.4697 257.471 47.661 258.4 47.661ZM285.299 55.369C283.495 55.369 281.869 55.0137 280.42 54.303C278.999 53.5923 277.878 52.4853 277.058 50.982C276.266 49.4513 275.869 47.5243 275.869 45.201V32.778H283.659V43.93C283.659 45.652 283.974 46.882 284.602 47.62C285.258 48.358 286.174 48.727 287.349 48.727C288.115 48.727 288.812 48.5493 289.44 48.194C290.069 47.8387 290.575 47.2783 290.957 46.513C291.34 45.7203 291.531 44.709 291.531 43.479V32.778H299.321V55H291.9V48.727L293.335 50.49C292.57 52.13 291.463 53.36 290.014 54.18C288.566 54.9727 286.994 55.369 285.299 55.369ZM304.339 55V24.578H312.129V55H304.339ZM330.762 55V50.859L330.229 49.834V42.208C330.229 40.978 329.847 40.035 329.081 39.379C328.343 38.6957 327.154 38.354 325.514 38.354C324.448 38.354 323.369 38.5317 322.275 38.887C321.182 39.215 320.253 39.6797 319.487 40.281L316.863 34.992C318.121 34.172 319.624 33.5433 321.373 33.106C323.15 32.6413 324.913 32.409 326.662 32.409C330.27 32.409 333.058 33.2427 335.026 34.91C337.022 36.55 338.019 39.133 338.019 42.659V55H330.762ZM324.202 55.369C322.426 55.369 320.922 55.0683 319.692 54.467C318.462 53.8657 317.519 53.0457 316.863 52.007C316.235 50.9683 315.92 49.8067 315.92 48.522C315.92 47.1553 316.262 45.98 316.945 44.996C317.656 43.9847 318.736 43.2193 320.184 42.7C321.633 42.1533 323.505 41.88 325.801 41.88H331.049V45.939H326.867C325.61 45.939 324.722 46.144 324.202 46.554C323.71 46.964 323.464 47.5107 323.464 48.194C323.464 48.8773 323.724 49.424 324.243 49.834C324.763 50.244 325.473 50.449 326.375 50.449C327.223 50.449 327.988 50.244 328.671 49.834C329.382 49.3967 329.901 48.7407 330.229 47.866L331.295 50.736C330.885 52.2667 330.079 53.4283 328.876 54.221C327.701 54.9863 326.143 55.369 324.202 55.369Z" fill="black"/>
</svg>
